<?xml version="1.0" encoding="UTF-8" standalone="no"?>
<svg
   xmlns:dc="http://purl.org/dc/elements/1.1/"
   xmlns:cc="http://creativecommons.org/ns#"
   xmlns:rdf="http://www.w3.org/1999/02/22-rdf-syntax-ns#"
   xmlns:svg="http://www.w3.org/2000/svg"
   xmlns="http://www.w3.org/2000/svg"
   xmlns:sodipodi="http://sodipodi.sourceforge.net/DTD/sodipodi-0.dtd"
   xmlns:inkscape="http://www.inkscape.org/namespaces/inkscape"
   version="1.1"
   x="0px"
   y="0px"
   viewBox="0 0 100 125"
   style="enable-background:new 0 0 100 100;"
   xml:space="preserve"
   id="svg123"
   sodipodi:docname="noun_Cloud Sun_1736402.svg"
   inkscape:version="0.92.3 (d244b95, 2018-08-02)"><metadata
     id="metadata129"><rdf:RDF><cc:Work
         rdf:about=""><dc:format>image/svg+xml</dc:format><dc:type
           rdf:resource="http://purl.org/dc/dcmitype/StillImage" /></cc:Work></rdf:RDF></metadata><defs
     id="defs127" /><sodipodi:namedview
     pagecolor="#ffffff"
     bordercolor="#666666"
     borderopacity="1"
     objecttolerance="10"
     gridtolerance="10"
     guidetolerance="10"
     inkscape:pageopacity="0"
     inkscape:pageshadow="2"
     inkscape:window-width="1870"
     inkscape:window-height="1016"
     id="namedview125"
     showgrid="false"
     inkscape:zoom="6.672"
     inkscape:cx="50"
     inkscape:cy="62.5"
     inkscape:window-x="2610"
     inkscape:window-y="366"
     inkscape:window-maximized="1"
     inkscape:current-layer="svg123" /><g
     id="g117"
     transform="translate(-1.4305115e-6,12.5)"><path
       d="M 81.3,49.8 C 81.3,39.4 72.9,31 62.5,31 c -8.2,0 -15.2,5.3 -17.8,12.7 -0.1,0.1 -0.2,0.1 -0.3,0.1 -2.3,-5.9 -8,-10 -14.6,-10 -8.7,0 -15.7,7 -15.7,15.7 0,0.1 0,0.3 0,0.4 C 8.7,52.8 5,58.6 5,65.3 c 0,9.6 7.8,17.4 17.4,17.4 h 38.2 c 9.2,0 16.7,-7.5 16.7,-16.7 0,-1.4 -0.2,-2.7 -0.5,-4 2.8,-3.3 4.5,-7.6 4.5,-12.2 z M 62.6,34.5 c 8.4,0 15.2,6.8 15.2,15.2 0,3.1 -0.9,6 -2.5,8.4 -2.8,-5.2 -8.3,-8.7 -14.7,-8.7 -0.5,0 -0.9,0 -1.3,0.1 -1.2,-4.1 -5,-7.2 -9.5,-7.2 -0.2,0 -0.3,0 -0.5,0 2.6,-4.6 7.6,-7.8 13.3,-7.8 z"
       id="path105"
       inkscape:connector-curvature="0" /><rect
       x="61.900002"
       y="17.299999"
       width="3.5999999"
       height="10.7"
       id="rect107" /><rect
       x="84.300003"
       y="46.900002"
       width="10.7"
       height="3.5999999"
       id="rect109" /><rect
       x="42.299999"
       y="23.700001"
       transform="matrix(0.7071,-0.7071,0.7071,0.7071,-7.6632,39.6584)"
       width="3.5999999"
       height="10.7"
       id="rect111" /><rect
       x="81.5"
       y="62.900002"
       transform="matrix(0.7071,-0.7071,0.7071,0.7071,-23.8956,78.8488)"
       width="3.5999999"
       height="10.7"
       id="rect113" /><rect
       x="76.699997"
       y="28.5"
       transform="matrix(0.7071,-0.7071,0.7071,0.7071,2.6259,66.8763)"
       width="10.7"
       height="3.5999999"
       id="rect115" /></g></svg>