<?xml version="1.0" encoding="UTF-8" standalone="no"?>
<svg
   xmlns:dc="http://purl.org/dc/elements/1.1/"
   xmlns:cc="http://creativecommons.org/ns#"
   xmlns:rdf="http://www.w3.org/1999/02/22-rdf-syntax-ns#"
   xmlns:svg="http://www.w3.org/2000/svg"
   xmlns="http://www.w3.org/2000/svg"
   xmlns:sodipodi="http://sodipodi.sourceforge.net/DTD/sodipodi-0.dtd"
   xmlns:inkscape="http://www.inkscape.org/namespaces/inkscape"
   viewBox="0 0 100 125"
   version="1.1"
   x="0px"
   y="0px"
   id="svg14"
   sodipodi:docname="logo.svg"
   inkscape:version="0.92.2 (5c3e80d, 2017-08-06)">
  <metadata
     id="metadata20">
    <rdf:RDF>
      <cc:Work
         rdf:about="">
        <dc:format>image/svg+xml</dc:format>
        <dc:type
           rdf:resource="http://purl.org/dc/dcmitype/StillImage" />
        <dc:title>tool-16 copy</dc:title>
      </cc:Work>
    </rdf:RDF>
  </metadata>
  <defs
     id="defs18" />
  <sodipodi:namedview
     pagecolor="#ffffff"
     bordercolor="#666666"
     borderopacity="1"
     objecttolerance="10"
     gridtolerance="10"
     guidetolerance="10"
     inkscape:pageopacity="0"
     inkscape:pageshadow="2"
     inkscape:window-width="1324"
     inkscape:window-height="717"
     id="namedview16"
     showgrid="false"
     inkscape:zoom="1.888"
     inkscape:cx="40.730932"
     inkscape:cy="62.5"
     inkscape:window-x="42"
     inkscape:window-y="25"
     inkscape:window-maximized="1"
     inkscape:current-layer="svg14" />
  <title
     id="title2">tool-16 copy</title>
  <desc
     id="desc4">Created with Sketch.</desc>
  <g
     stroke="none"
     stroke-width="1"
     fill="none"
     fill-rule="evenodd"
     id="g8"
     style="fill:#ffffff">
    <path
       d="M19.0569851,69.6903615 L19.0569851,50.2763116 C19.0569851,47.6579492 28.6348865,57.987831 29.482287,59.9828988 C28.6366374,61.9709634 19.0569851,73.595582 19.0569851,69.6903615 M60.6076215,39.8308752 L60.6076215,36.3721156 L60.6041199,36.3721156 C60.5340868,22.3698733 49.1239444,11 35.1059447,11 L20.9627608,11 L20.9627608,13.6262411 C20.9627608,28.7857804 32.7852229,41.6245979 47.8782307,42.8545541 C49.3226634,42.972735 50.5911378,41.8951007 50.7084433,40.4497927 C50.8266241,39.0036092 49.7498652,37.7368856 48.3036818,37.6187047 C36.7998702,36.6820121 27.6097771,27.5243092 26.3605617,16.2524823 L35.1059447,16.2524823 C46.2718466,16.2524823 55.3551392,25.3357749 55.3551392,36.5016768 L55.3551392,81.1276416 C55.3551392,83.1130799 53.7391255,84.7290936 51.7536872,84.7290936 C49.7682489,84.7290936 48.1531106,83.1130799 48.1531106,81.1276416 L48.1531106,73.5316768 C48.1531106,65.3334274 42.0173359,58.5577253 34.0992189,57.5133567 C31.4843582,52.3335338 22.5271251,45.5210643 22.5271251,45.5210643 C21.5545404,44.8942681 20.5022931,44.6097586 19.4763083,44.6097586 C16.5314165,44.6097586 13.8045028,46.954992 13.8045028,50.2763116 L13.8045028,50.647487 L7.20650969,50.647487 C5.8662513,50.647487 4.80524988,51.8424267 5.03023121,53.224705 C5.20706478,54.3093426 6.22517092,55.0604475 7.32381513,55.0604475 L13.8045028,55.0604475 L13.8045028,64.9071009 L7.20650969,64.9071009 C5.8662513,64.9071009 4.80524988,66.1011652 5.03023121,67.4834435 C5.20706478,68.5680811 6.22517092,69.3191861 7.32381513,69.3191861 L13.8045028,69.3191861 L13.8045028,69.6903615 C13.8045028,73.0125565 16.5314165,75.3577898 19.4763083,75.3577898 C20.5022931,75.3577898 21.5554158,75.072405 22.5271251,74.4456087 C22.5271251,74.4456087 31.1000515,67.9264028 33.9206345,62.7929768 C39.0181686,63.7139121 42.9006284,68.1732695 42.9006284,73.5316768 L42.9006284,81.1276416 C42.9006284,86.0098239 46.8723804,89.9815759 51.7536872,89.9815759 C56.6358695,89.9815759 60.6076215,86.0098239 60.6076215,81.1276416 L60.6076215,55.3073142 C60.6076215,44.1414123 69.6909142,35.058995 80.8568161,35.058995 L89.6074515,35.058995 C88.4037577,46.2572872 79.5804629,55.2162712 68.1466844,56.3814468 C66.7040026,56.5285163 65.6535061,57.8171253 65.8005757,59.2598071 C65.9380156,60.6123213 67.0795551,61.6199225 68.4093085,61.6199225 C68.4986007,61.6199225 68.5887683,61.6155454 68.6789359,61.6067913 C83.6844024,60.0783189 95,47.5353913 95,32.4327539 L95,29.8065128 L80.8568161,29.8065128 C72.6121697,29.8065128 65.2727012,33.7423728 60.6076215,39.8308752"
       fill="#000000"
       id="path6"
       style="fill:#ffffff" />
  </g>
</svg>
