<?xml version="1.0" encoding="UTF-8" standalone="no"?>
<svg
   xmlns:dc="http://purl.org/dc/elements/1.1/"
   xmlns:cc="http://creativecommons.org/ns#"
   xmlns:rdf="http://www.w3.org/1999/02/22-rdf-syntax-ns#"
   xmlns:svg="http://www.w3.org/2000/svg"
   xmlns="http://www.w3.org/2000/svg"
   xmlns:sodipodi="http://sodipodi.sourceforge.net/DTD/sodipodi-0.dtd"
   xmlns:inkscape="http://www.inkscape.org/namespaces/inkscape"
   version="1.1"
   x="0px"
   y="0px"
   viewBox="0 0 100 125"
   style="enable-background:new 0 0 100 100;"
   xml:space="preserve"
   id="svg8"
   sodipodi:docname="noun_Rain_1090034.svg"
   inkscape:version="0.92.3 (d244b95, 2018-08-02)"><metadata
     id="metadata14"><rdf:RDF><cc:Work
         rdf:about=""><dc:format>image/svg+xml</dc:format><dc:type
           rdf:resource="http://purl.org/dc/dcmitype/StillImage" /></cc:Work></rdf:RDF></metadata><defs
     id="defs12" /><sodipodi:namedview
     pagecolor="#ffffff"
     bordercolor="#666666"
     borderopacity="1"
     objecttolerance="10"
     gridtolerance="10"
     guidetolerance="10"
     inkscape:pageopacity="0"
     inkscape:pageshadow="2"
     inkscape:window-width="2510"
     inkscape:window-height="1376"
     id="namedview10"
     showgrid="false"
     inkscape:zoom="1.888"
     inkscape:cx="50"
     inkscape:cy="62.5"
     inkscape:window-x="50"
     inkscape:window-y="30"
     inkscape:window-maximized="1"
     inkscape:current-layer="svg8" /><path
     d="m 91.241525,59.554177 c 0,7.321843 -5.934361,13.256204 -13.256204,13.256204 H 22.014679 c -7.321843,0 -13.2562044,-5.934361 -13.2562044,-13.256204 0,-7.321844 5.9343614,-13.256205 13.2562044,-13.256205 0.321095,0 0.634825,0.02504 0.951501,0.04861 -0.611258,-1.87207 -0.951501,-3.86492 -0.951501,-5.940252 0,-10.575506 8.572346,-19.147851 19.147851,-19.147851 7.938994,0 14.749737,4.832623 17.651373,11.715539 1.782223,-0.891112 3.786856,-1.405158 5.915213,-1.405158 7.321844,0 13.256205,5.934361 13.256205,13.256205 0,0.499317 -0.0324,0.991269 -0.0869,1.47733 0.02946,0 0.05744,-0.0044 0.0869,-0.0044 7.321843,0 13.256204,5.934361 13.256204,13.256205 z M 23.487591,89.012409 c -0.813047,0 -1.472912,0.659865 -1.472912,1.472912 v 8.83747 c 0,0.813049 0.659865,1.472909 1.472912,1.472909 0.813047,0 1.472911,-0.65986 1.472911,-1.472909 v -8.83747 c 0,-0.813047 -0.659864,-1.472912 -1.472911,-1.472912 z m 0,-11.783293 c -0.813047,0 -1.472912,0.659865 -1.472912,1.472912 v 2.945823 c 0,0.813047 0.659865,1.472912 1.472912,1.472912 0.813047,0 1.472911,-0.659865 1.472911,-1.472912 v -2.945823 c 0,-0.813047 -0.659864,-1.472912 -1.472911,-1.472912 z m 8.83747,0 c -0.813048,0 -1.472912,0.659865 -1.472912,1.472912 v 17.674939 c 0,0.813048 0.659864,1.472912 1.472912,1.472912 0.813047,0 1.472911,-0.659864 1.472911,-1.472912 V 78.702028 c 0,-0.813047 -0.659864,-1.472912 -1.472911,-1.472912 z m 8.837469,0 c -0.813047,0 -1.472911,0.659865 -1.472911,1.472912 v 7.364558 c 0,0.813047 0.659864,1.472912 1.472911,1.472912 0.813047,0 1.472912,-0.659865 1.472912,-1.472912 v -7.364558 c 0,-0.813047 -0.659865,-1.472912 -1.472912,-1.472912 z m 0,19.147851 c -0.813047,0 -1.472911,0.659865 -1.472911,1.472912 v 4.418731 c 0,0.81305 0.659864,1.47292 1.472911,1.47292 0.813047,0 1.472912,-0.65987 1.472912,-1.47292 v -4.418731 c 0,-0.813047 -0.659865,-1.472912 -1.472912,-1.472912 z M 50,77.229116 c -0.813047,0 -1.472912,0.659865 -1.472912,1.472912 v 23.566582 c 0,0.81305 0.659865,1.47292 1.472912,1.47292 0.813047,0 1.472912,-0.65987 1.472912,-1.47292 V 78.702028 c 0,-0.813047 -0.659865,-1.472912 -1.472912,-1.472912 z m 8.83747,0 c -0.813047,0 -1.472912,0.659865 -1.472912,1.472912 v 13.256204 c 0,0.813048 0.659865,1.472912 1.472912,1.472912 0.813047,0 1.472911,-0.659864 1.472911,-1.472912 V 78.702028 c 0,-0.813047 -0.659864,-1.472912 -1.472911,-1.472912 z m 8.837469,0 c -0.813047,0 -1.472911,0.659865 -1.472911,1.472912 v 17.674939 c 0,0.813048 0.659864,1.472912 1.472911,1.472912 0.813048,0 1.472912,-0.659864 1.472912,-1.472912 V 78.702028 c 0,-0.813047 -0.659864,-1.472912 -1.472912,-1.472912 z m 8.83747,4.418735 c -0.813047,0 -1.472911,0.659864 -1.472911,1.472912 v 16.202028 c 0,0.813049 0.659864,1.472909 1.472911,1.472909 0.813047,0 1.472912,-0.65986 1.472912,-1.472909 V 83.120763 c 0,-0.813048 -0.659865,-1.472912 -1.472912,-1.472912 z M 58.83747,97.849879 c -0.813047,0 -1.472912,0.659864 -1.472912,1.472912 0,0.813049 0.659865,1.472909 1.472912,1.472909 0.813047,0 1.472911,-0.65986 1.472911,-1.472909 0,-0.813048 -0.659864,-1.472912 -1.472911,-1.472912 z M 76.512409,77.229116 c -0.813047,0 -1.472911,0.659865 -1.472911,1.472912 0,0.813047 0.659864,1.472911 1.472911,1.472911 0.813047,0 1.472912,-0.659864 1.472912,-1.472911 0,-0.813047 -0.659865,-1.472912 -1.472912,-1.472912 z M 41.16253,89.012409 c -0.813047,0 -1.472911,0.659865 -1.472911,1.472912 0,0.813047 0.659864,1.472911 1.472911,1.472911 0.813047,0 1.472912,-0.659864 1.472912,-1.472911 0,-0.813047 -0.659865,-1.472912 -1.472912,-1.472912 z M 23.487591,84.593674 c -0.813047,0 -1.472912,0.659865 -1.472912,1.472912 0,0.813047 0.659865,1.472912 1.472912,1.472912 0.813047,0 1.472911,-0.659865 1.472911,-1.472912 0,-0.813047 -0.659864,-1.472912 -1.472911,-1.472912 z"
     id="path2"
     inkscape:connector-curvature="0"
     style="stroke-width:1.4729116" /></svg>