<?xml version="1.0" encoding="UTF-8" standalone="no"?>
<svg
   version="1.1"
   x="0px"
   y="0px"
   viewBox="0 0 23.169224 33.319305"
   xml:space="preserve"
   id="svg12"
   sodipodi:docname="noun_Flame_649097.svg"
   width="23.169224"
   height="33.319305"
   inkscape:version="1.1 (ce6663b3b7, 2021-05-25)"
   xmlns:inkscape="http://www.inkscape.org/namespaces/inkscape"
   xmlns:sodipodi="http://sodipodi.sourceforge.net/DTD/sodipodi-0.dtd"
   xmlns="http://www.w3.org/2000/svg"
   xmlns:svg="http://www.w3.org/2000/svg"><defs
     id="defs16" /><sodipodi:namedview
     id="namedview14"
     pagecolor="#ffffff"
     bordercolor="#666666"
     borderopacity="1.0"
     inkscape:pageshadow="2"
     inkscape:pageopacity="0.0"
     inkscape:pagecheckerboard="0"
     showgrid="false"
     inkscape:zoom="7.76"
     inkscape:cx="11.662371"
     inkscape:cy="28.930412"
     inkscape:window-width="2510"
     inkscape:window-height="1384"
     inkscape:window-x="50"
     inkscape:window-y="30"
     inkscape:window-maximized="1"
     inkscape:current-layer="g6" /><g
     id="g6"
     transform="translate(-33.406453,-27.256205)"><path
       d="m 41.562719,29.615857 c 0,0 3.2,7.1 -2.4,13.2 v 0 c -1.8,1.6 -3,4 -3,6.6 0,4.8 3.9,8.8 8.8,8.8 4.9,0 8.8,-3.9 8.8,-8.8 0,0 1.6,-12.1 -12.2,-19.8 z m 3.5,26.1 c -2.4,0 -4.3,-1.9 -4.3,-4.3 0,0 -0.8,-5.9 6,-9.6 0,0 -1.6,3.5 1.2,6.4 v 0 c 0.9,0.8 1.5,1.9 1.5,3.2 -0.2,2.4 -2.1,4.3 -4.4,4.3 z"
       id="path2" /></g></svg>
